<svg xmlns="http://www.w3.org/2000/svg" viewBox="0 0 1600 1000">
<defs><linearGradient id="sky" y2="1"><stop stop-color="#070b1b"/><stop offset=".65" stop-color="#15162e"/><stop offset="1" stop-color="#2b1e32"/></linearGradient><radialGradient id="moon"><stop stop-color="#fff4bd"/><stop offset="1" stop-color="#c7b878" stop-opacity=".15"/></radialGradient></defs>
<rect width="1600" height="1000" fill="url(#sky)"/><circle cx="1260" cy="190" r="145" fill="url(#moon)"/><circle cx="1260" cy="190" r="74" fill="#f7edc7" opacity=".9"/>
<g fill="#f4dc8b" opacity=".85"><circle cx="120" cy="130" r="3"/><circle cx="240" cy="280" r="2"/><circle cx="410" cy="110" r="3"/><circle cx="560" cy="230" r="2"/><circle cx="760" cy="95" r="3"/><circle cx="900" cy="190" r="2"/><circle cx="1040" cy="90" r="3"/><circle cx="1450" cy="320" r="2"/><circle cx="1510" cy="120" r="3"/><circle cx="1360" cy="440" r="2"/></g>
<path d="M0 760 L120 690 220 720 290 650 390 705 470 630 560 690 650 610 760 680 850 590 940 670 1040 610 1120 690 1210 620 1300 700 1400 610 1600 710V1000H0Z" fill="#080b17"/>
<g fill="#11162a" stroke="#b39b59" stroke-opacity=".25"><path d="M430 740V410h70V350h70v60h60v-130h85v130h65v-50h65v380z"/><path d="M510 410v-90l25-45 25 45v90z"/><path d="M625 280v-100l32-58 32 58v100z"/><path d="M750 410v-80l25-45 25 45v80z"/></g>
<g fill="#f2d98e" opacity=".8"><rect x="525" y="385" width="10" height="16"/><rect x="595" y="470" width="10" height="16"/><rect x="680" y="350" width="10" height="16"/><rect x="735" y="500" width="10" height="16"/></g>
</svg>
